<svg xmlns="http://www.w3.org/2000/svg" viewBox="0 0 1440 320"><path fill="#191315" fill-opacity="1" d="M0,224L20,213.3C40,203,80,181,120,165.3C160,149,200,139,240,149.3C280,160,320,192,360,186.7C400,181,440,139,480,128C520,117,560,139,600,128C640,117,680,75,720,74.7C760,75,800,117,840,138.7C880,160,920,160,960,144C1000,128,1040,96,1080,74.7C1120,53,1160,43,1200,64C1240,85,1280,139,1320,176C1360,213,1400,235,1420,245.3L1440,256L1440,0L1420,0C1400,0,1360,0,1320,0C1280,0,1240,0,1200,0C1160,0,1120,0,1080,0C1040,0,1000,0,960,0C920,0,880,0,840,0C800,0,760,0,720,0C680,0,640,0,600,0C560,0,520,0,480,0C440,0,400,0,360,0C320,0,280,0,240,0C200,0,160,0,120,0C80,0,40,0,20,0L0,0Z"></path></svg>